inDegrees=yes
name=ik_tiny_file
DataType=double
version=3
OpenSimVersion=4.4-2022-07-23-0e9fedc
endheader
time	pelvis_tilt	pelvis_list	pelvis_rotation	pelvis_tx	pelvis_ty	pelvis_tz	hip_flexion_r	hip_adduction_r	hip_rotation_r	knee_angle_r	knee_angle_r_beta	ankle_angle_r	subtalar_angle_r	mtp_angle_r	hip_flexion_l	hip_adduction_l	hip_rotation_l	knee_angle_l	knee_angle_l_beta	ankle_angle_l	subtalar_angle_l	mtp_angle_l	lumbar_extension	lumbar_bending	lumbar_rotation	arm_flex_r	arm_add_r	arm_rot_r	elbow_flex_r	pro_sup_r	wrist_flex_r	wrist_dev_r	arm_flex_l	arm_add_l	arm_rot_l	elbow_flex_l	pro_sup_l	wrist_flex_l	wrist_dev_l
0	0	0	0	0	0.9399999999999999	0	0	0	0	0	0	0	0	0	0	0	0	0	0	0	0	0	0	0	0	0	0	0	0	0	0	0	0	0	0	0	0	0	0
0.02	0.1839553335424845	-0.02656993972236037	0.004200432053535617	0	0.9399999999999999	0	42.40631331798412	-10.85165072851487	0	60.82228878155956	1.061549197837024	-4.962174011541152	0	0	42.40631331798412	-10.85165072851487	0	60.82228878155956	1.061549197837024	-4.962174011541152	0	0	-0.1335357039506532	-0.003335447931588558	-0.003220522633395832	-0.3058192846063582	-0.0922421167530007	-0.01405115269016713	0.6146327071357482	44.72984896209019	0	5.217828267459875	-0.26652152288281	-0.05755970079622994	-0.008372430399495062	0.5805836996434786	44.72984896209019	0	5.217828267459875
0.04	0.3429648170275302	-0.06654671913175983	-0.0145729453828012	0	0.9399999999999999	0	42.40667968223665	-10.85123444816448	0	60.82219704196314	1.061547596679012	-4.962181391256996	0	0	42.40667968223665	-10.85123444816448	0	60.82219704196314	1.061547596679012	-4.962181391256996	0	0	-0.2235385470975259	-0.001162760330282872	0.0192283262813324	-0.3433455195696299	-0.1095754665065405	-0.02354161246906171	0.6195172055161964	44.72995353222746	0	5.217640221264113	-0.2560473050612354	-0.0622902239569136	-0.03106576339437461	0.5758928449140135	44.72995353222746	0	5.217640221264113
0.06	0.5053062778073185	-0.1004600980691323	-0.02561422022357683	0	0.9399999999999999	0	42.40703524051424	-10.85083144875714	0	60.82210785930601	1.06154604014801	-4.962188548858495	0	0	42.40703524051424	-10.85083144875714	0	60.82210785930601	1.06154604014801	-4.962188548858495	0	0	-0.3357664878318545	-0.006112686276658557	0.02807566955171455	-0.374181127518337	-0.08464252189557532	0.006229489720748198	0.6365561625548011	44.73005481601194	0	5.217458410241718	-0.2495236266466766	-0.002674654034360599	0.01064981644949932	0.5744429150636202	44.73005481601194	0	5.217458410241718
0.08	0.6777470094605624	-0.1237682032082761	-0.02927762486427652	0	0.9399999999999999	0	42.40747208309737	-10.85033494115314	0	60.82199855911759	1.061544132499849	-4.962197349758883	0	0	42.40747208309737	-10.85033494115314	0	60.82199855911759	1.061544132499849	-4.962197349758883	0	0	-0.4690417473923409	-0.01072701709198103	0.05163945963092112	-0.3972952391000321	-0.0967793026257965	-0.01463193405363101	0.6571623788351854	44.73017954431194	0	5.217234213865261	-0.2233659659499247	0.03138233126782682	0.0260024657440705	0.566411717703117	44.73017954431194	0	5.217234213865261
0.1	0.8231399995313782	-0.1453669227889512	-0.03350791552281891	0	0.9399999999999999	0	42.40807535786673	-10.84964591937294	0	60.82184826279977	1.061541509334249	-4.962209520570931	0	0	42.40807535786673	-10.84964591937294	0	60.82184826279977	1.061541509334249	-4.962209520570931	0	0	-0.5955138287726733	-0.01190824076352621	0.1273256791721658	-0.387297175755706	-0.1181901773695765	-0.06674372157189383	0.6809290777551428	44.7303524955473	0	5.216922582739512	-0.1577645927703916	0.05499827524309805	0.07606998137464524	0.5449448070910625	44.7303524955473	0	5.216922582739512
0.12	0.9387849486317595	-0.171257322176055	-0.02662681171420295	0	0.9399999999999999	0	42.40851365556264	-10.84914875906991	0	60.82173850542878	1.061539593706747	-4.962218347083854	0	0	42.40851365556264	-10.84914875906991	0	60.82173850542878	1.061539593706747	-4.962218347083854	0	0	-0.6486144989929371	0.004668670453896172	0.2019661696682056	-0.4209614467418242	-0.1438575064460045	-0.08395423656258841	0.6793679796027207	44.73047744794215	0	5.216698434323224	-0.1477549496073441	0.07714452460042129	0.2191435775969577	0.538052796495853	44.73047744794215	0	5.216698434323224
0.14	1.050832655326635	-0.212588972892954	-0.06331591321918006	0	0.9399999999999999	0	42.46585678802007	-10.79464472184071	0	60.80727230689894	1.061287110912154	-4.963340850176268	0	0	42.46585678802007	-10.79464472184071	0	60.80727230689894	1.061287110912154	-4.963340850176268	0	0	-0.6999186675287437	0.06342317555531583	0.3541459675547853	-0.480242170695076	-0.1897645087374411	-0.1704185408905231	0.7080519862731927	44.74486850047298	0	5.195749566811112	-0.1814400578049609	0.1196909470814731	0.404610257964303	0.5403556051918693	44.74486850047298	0	5.195749566811112
0.16	1.16611210503075	-0.2327713965557508	-0.07169961927540686	0	0.9399999999999999	0	42.55926942160302	-10.71051204444304	0	60.78358394479557	1.060873670999046	-4.965153178866364	0	0	42.55926942160302	-10.71051204444304	0	60.78358394479557	1.060873670999046	-4.965153178866364	0	0	-0.7706861071823508	0.0632351662426016	0.3517038599641614	-0.5182169457314069	-0.2074369988051696	-0.1629944518684245	0.7353436400114252	44.76741577799324	0	5.1649946033513	-0.1835304732601993	0.1302809699540367	0.3955934373386115	0.5379536882116248	44.76741577799324	0	5.1649946033513
